<mxfile host="app.diagrams.net" agent="Mozilla/5.0 (Macintosh; Intel Mac OS X 10_15_7) AppleWebKit/537.36 (KHTML, like Gecko) Chrome/123.0.0.0 Safari/537.36" version="26.0.4">
  <diagram name="Page-1" id="aqi8N9kgmrKyW0VRrrSc">
    <mxGraphModel dx="909" dy="613" grid="1" gridSize="10" guides="1" tooltips="1" connect="1" arrows="1" fold="1" page="1" pageScale="1" pageWidth="827" pageHeight="1169" math="0" shadow="0">
      <root>
        <mxCell id="0" />
        <mxCell id="1" parent="0" />
        <mxCell id="r7BLedHF38zsyLDDg897-1" value="Students" style="shape=umlActor;verticalLabelPosition=bottom;verticalAlign=top;html=1;outlineConnect=0;" parent="1" vertex="1">
          <mxGeometry x="80" y="330" width="90" height="130" as="geometry" />
        </mxCell>
        <mxCell id="wsj3JB3xd-FZV2TPmrug-10" style="edgeStyle=orthogonalEdgeStyle;rounded=0;orthogonalLoop=1;jettySize=auto;html=1;exitX=0;exitY=0.5;exitDx=0;exitDy=0;entryX=0.5;entryY=0;entryDx=0;entryDy=0;entryPerimeter=0;" edge="1" parent="1" source="wsj3JB3xd-FZV2TPmrug-1" target="r7BLedHF38zsyLDDg897-1">
          <mxGeometry relative="1" as="geometry">
            <mxPoint x="150" y="205" as="targetPoint" />
          </mxGeometry>
        </mxCell>
        <mxCell id="wsj3JB3xd-FZV2TPmrug-1" value="Admissions" style="ellipse;whiteSpace=wrap;html=1;" vertex="1" parent="1">
          <mxGeometry x="310" y="170" width="140" height="70" as="geometry" />
        </mxCell>
        <mxCell id="wsj3JB3xd-FZV2TPmrug-11" style="edgeStyle=orthogonalEdgeStyle;rounded=0;orthogonalLoop=1;jettySize=auto;html=1;" edge="1" parent="1" source="wsj3JB3xd-FZV2TPmrug-2" target="r7BLedHF38zsyLDDg897-1">
          <mxGeometry relative="1" as="geometry" />
        </mxCell>
        <mxCell id="wsj3JB3xd-FZV2TPmrug-2" value="Course Registration" style="ellipse;whiteSpace=wrap;html=1;" vertex="1" parent="1">
          <mxGeometry x="310" y="280" width="140" height="70" as="geometry" />
        </mxCell>
        <mxCell id="wsj3JB3xd-FZV2TPmrug-12" style="edgeStyle=orthogonalEdgeStyle;rounded=0;orthogonalLoop=1;jettySize=auto;html=1;" edge="1" parent="1" source="wsj3JB3xd-FZV2TPmrug-3" target="r7BLedHF38zsyLDDg897-1">
          <mxGeometry relative="1" as="geometry" />
        </mxCell>
        <mxCell id="wsj3JB3xd-FZV2TPmrug-3" value="Timetable Management" style="ellipse;whiteSpace=wrap;html=1;" vertex="1" parent="1">
          <mxGeometry x="310" y="400" width="140" height="70" as="geometry" />
        </mxCell>
        <mxCell id="wsj3JB3xd-FZV2TPmrug-13" style="edgeStyle=orthogonalEdgeStyle;rounded=0;orthogonalLoop=1;jettySize=auto;html=1;" edge="1" parent="1" source="wsj3JB3xd-FZV2TPmrug-4" target="r7BLedHF38zsyLDDg897-1">
          <mxGeometry relative="1" as="geometry" />
        </mxCell>
        <mxCell id="wsj3JB3xd-FZV2TPmrug-17" style="edgeStyle=orthogonalEdgeStyle;rounded=0;orthogonalLoop=1;jettySize=auto;html=1;" edge="1" parent="1" source="wsj3JB3xd-FZV2TPmrug-4">
          <mxGeometry relative="1" as="geometry">
            <mxPoint x="691" y="460" as="targetPoint" />
          </mxGeometry>
        </mxCell>
        <mxCell id="wsj3JB3xd-FZV2TPmrug-4" value="Syllabus Access" style="ellipse;whiteSpace=wrap;html=1;" vertex="1" parent="1">
          <mxGeometry x="310" y="510" width="140" height="70" as="geometry" />
        </mxCell>
        <mxCell id="wsj3JB3xd-FZV2TPmrug-5" value="Exam Management" style="ellipse;whiteSpace=wrap;html=1;" vertex="1" parent="1">
          <mxGeometry x="310" y="630" width="140" height="70" as="geometry" />
        </mxCell>
        <mxCell id="wsj3JB3xd-FZV2TPmrug-7" value="Administrator" style="shape=umlActor;verticalLabelPosition=bottom;verticalAlign=top;html=1;" vertex="1" parent="1">
          <mxGeometry x="670" y="350" width="40" height="80" as="geometry" />
        </mxCell>
        <mxCell id="wsj3JB3xd-FZV2TPmrug-8" value="Faculty" style="shape=umlActor;verticalLabelPosition=bottom;verticalAlign=top;html=1;" vertex="1" parent="1">
          <mxGeometry x="675" y="720" width="30" height="60" as="geometry" />
        </mxCell>
        <mxCell id="wsj3JB3xd-FZV2TPmrug-15" style="edgeStyle=orthogonalEdgeStyle;rounded=0;orthogonalLoop=1;jettySize=auto;html=1;entryX=0.5;entryY=0;entryDx=0;entryDy=0;entryPerimeter=0;" edge="1" parent="1" source="wsj3JB3xd-FZV2TPmrug-1" target="wsj3JB3xd-FZV2TPmrug-7">
          <mxGeometry relative="1" as="geometry" />
        </mxCell>
        <mxCell id="wsj3JB3xd-FZV2TPmrug-16" style="edgeStyle=orthogonalEdgeStyle;rounded=0;orthogonalLoop=1;jettySize=auto;html=1;entryX=0;entryY=1;entryDx=0;entryDy=0;entryPerimeter=0;" edge="1" parent="1" source="wsj3JB3xd-FZV2TPmrug-3" target="wsj3JB3xd-FZV2TPmrug-7">
          <mxGeometry relative="1" as="geometry" />
        </mxCell>
        <mxCell id="wsj3JB3xd-FZV2TPmrug-19" style="edgeStyle=orthogonalEdgeStyle;rounded=0;orthogonalLoop=1;jettySize=auto;html=1;entryX=1;entryY=0.3333333333333333;entryDx=0;entryDy=0;entryPerimeter=0;" edge="1" parent="1" source="wsj3JB3xd-FZV2TPmrug-5" target="wsj3JB3xd-FZV2TPmrug-7">
          <mxGeometry relative="1" as="geometry" />
        </mxCell>
        <mxCell id="wsj3JB3xd-FZV2TPmrug-20" style="edgeStyle=orthogonalEdgeStyle;rounded=0;orthogonalLoop=1;jettySize=auto;html=1;" edge="1" parent="1" source="wsj3JB3xd-FZV2TPmrug-4">
          <mxGeometry relative="1" as="geometry">
            <mxPoint x="686" y="710" as="targetPoint" />
          </mxGeometry>
        </mxCell>
      </root>
    </mxGraphModel>
  </diagram>
</mxfile>
